<svg xmlns="http://www.w3.org/2000/svg" xmlns:xlink="http://www.w3.org/1999/xlink" viewBox="0 0 19 23"><use fill="#262626" transform="translate(0 6.859)" xlink:href="#path0_fill"/><use fill="#262626" transform="translate(4.51 .908)" xlink:href="#path1_fill"/><defs><path id="path0_fill" fill-rule="evenodd" d="M18.947 0H0v11.79a4 4 0 0 0 4 4h10.947a4 4 0 0 0 4-4V0zM4 14.29a2.5 2.5 0 0 1-2.5-2.5V1.5h15.947v10.29a2.5 2.5 0 0 1-2.5 2.5H4z"/><path id="path1_fill" d="M1.5 11.152V4.962a3.46 3.46 0 1 1 6.921 0v6.191a.75.75 0 0 0 1.5 0V4.962A4.96 4.96 0 1 0 0 4.96v6.191a.75.75 0 0 0 1.5 0z"/></defs></svg>