<svg xmlns="http://www.w3.org/2000/svg" xmlns:xlink="http://www.w3.org/1999/xlink" viewBox="0 0 192 21"><use fill="#FFF" transform="translate(.62 1.38)" xlink:href="#path0_fill"/><use fill="#FFF" transform="translate(51.77 1.38)" xlink:href="#path1_fill"/><use fill="#FFF" transform="translate(26.69 1.38)" xlink:href="#path2_fill"/><use fill="#FFF" transform="translate(75 1.38)" xlink:href="#path3_fill"/><g fill="#57AD56"><g transform="translate(108.23 1.38)"><use xlink:href="#path4_fill"/><use xlink:href="#path5_stroke"/></g><g transform="translate(129.69 1.38)"><use xlink:href="#path6_fill"/><use xlink:href="#path7_stroke"/></g><g transform="translate(154.23 1.38)"><use xlink:href="#path8_fill"/><use xlink:href="#path9_stroke"/></g><g transform="translate(177.69 1)"><use xlink:href="#path10_fill"/><use xlink:href="#path11_stroke"/></g></g><defs><path id="path0_fill" d="M14.461.462v10.615c0 3.538-1.538 5-5.23 5-3.693 0-5.231-1.462-5.231-5V0H.462C.23 0 0 .23 0 .462V11.23c0 5.923 3.77 8 9.23 8 5.462 0 9.232-2.077 9.232-8V0h-3.539c-.23 0-.462.154-.462.462z"/><path id="path1_fill" d="M14.77 3.077c.307 0 .46-.077.538-.308l1-2.538c.077-.154 0-.231-.154-.231H1.846C.538 0 0 .385 0 1.308v16.461c0 .77.385 1.154 1.385 1.154h13.307c.308 0 .462-.077.539-.308l1-2.538c.077-.154 0-.23-.154-.23H3.923V12.46c0-1.153.615-1.692 2.385-1.692h5.307c.308 0 .462-.077.539-.308l1-2.461c.077-.154 0-.23-.154-.23H4V3h10.77v.077z"/><path id="path2_fill" fill-rule="evenodd" d="M14.692 8.923c1.539-.846 2.154-2.308 2.154-4.154C16.846.615 13.461 0 9.923 0H1.846C.538 0 0 .385 0 1.308v16.461c0 .77.385 1.154 1.385 1.154h9.923c3.769 0 6.384-1.461 6.384-5.23.077-2.308-.846-4.231-3-4.77zM4 3h6.23c2.078 0 2.693.77 2.693 2.385 0 1.615-.615 2.384-2.692 2.384H4V3zm0 12.846h7c2.23 0 2.846-.77 2.846-2.538 0-1.77-.615-2.616-2.846-2.616H6.385c-1.77 0-2.385.539-2.385 1.692v3.462z"/><path id="path3_fill" fill-rule="evenodd" d="M13.615 11.308l4.231 7.307c.077.077.077.308-.077.308h-3.615c-.308 0-.385-.077-.539-.308L9.77 11.692H6.308c-1.77 0-2.385.539-2.385 1.693v5.538H.462A.496.496 0 0 1 0 18.462V1.308C0 .385.538 0 1.846 0h8.077c4.692 0 7.539 1.23 7.539 5.846 0 3.539-1.77 4.923-3.847 5.462zM3.846 8.769h6.615c2.462 0 3-.923 3-2.923 0-1.923-.538-2.846-3-2.846H3.846v5.77z"/><path id="path4_fill" d="M14.077 17.23L14 18.924H0V0h13.461l.078 1.77H1.923v6.538h10v1.538h-10v7.385h12.154z"/><path id="path5_stroke" d="M14 18.923v.125h.12l.005-.12-.125-.005zm-14 0h-.125v.125H0v-.125zM0 0v-.125h-.125V0H0zm13.461 0l.125-.005-.005-.12h-.12V0zm.078 1.77v.124h.13l-.006-.13-.124.005zm-11.616 0v-.126h-.125v.125h.125zm0 6.538h-.125v.125h.125v-.125zm10 0h.125v-.125h-.125v.125zm0 1.538v.125h.125v-.125h-.125zm-10 0v-.125h-.125v.125h.125zm0 7.385h-.125v.125h.125v-.125zm12.03-.006l-.078 1.692.25.012.077-1.693-.25-.01zM14 18.798H0v.25h14v-.25zm-13.875.125V0h-.25v18.923h.25zM0 .125h13.461v-.25H0v.25zm13.337-.12l.077 1.77.25-.011-.078-1.77-.25.011zm.202 1.64H1.923v.25H13.54v-.25zm-11.74.124v6.539h.25V1.769h-.25zm.124 6.664h10v-.25h-10v.25zm9.875-.125v1.538h.25V8.308h-.25zm.125 1.413h-10v.25h10v-.25zm-10.125.125v7.385h.25V9.846h-.25zm.125 7.51h12.154v-.25H1.923v.25z"/><path id="path6_fill" fill-rule="evenodd" d="M4.23 14h11.155l2.153 4.923h2.154L11 0H8.77L0 18.923h2.077L4.23 14zm.693-1.615L9 3.23l.77-1.923h.076l.77 1.923 4 9.154H4.922z"/><path id="path7_stroke" d="M15.385 14l.114-.05-.033-.075h-.081V14zM4.23 14v-.125h-.082l-.033.075.115.05zm13.307 4.923l-.114.05.033.075h.081v-.125zm2.154 0v.125h.195l-.081-.177-.114.052zM11 0l.114-.052-.034-.073H11V0zM8.77 0v-.125h-.08l-.034.072.113.053zM0 18.923l-.113-.052-.083.177H0v-.125zm2.077 0v.125h.082l.032-.075-.114-.05zM9 3.231l.114.05.002-.004L9 3.231zm-4.077 9.154l-.114-.051-.078.176h.192v-.125zM9.77 1.308v-.125h-.084l-.032.078.116.047zm.077 0l.116-.047-.031-.078h-.085v.125zm.77 1.923l-.117.046.002.004.114-.05zm4 9.154v.125h.19l-.076-.175-.115.05zm.769 1.49H4.23v.25h11.154v-.25zm2.268 4.998l-2.154-4.923-.229.1 2.154 4.923.229-.1zm2.04-.075h-2.155v.25h2.154v-.25zM10.885.052l8.693 18.923.227-.104L11.114-.052l-.228.104zM8.77.125H11v-.25H8.77v.25zM.113 18.975L8.883.054l-.227-.106-8.77 18.924.227.105zm1.964-.177H0v.25h2.077v-.25zm2.04-4.848l-2.155 4.923.23.1 2.153-4.923-.229-.1zM8.885 3.18l-4.077 9.154.228.101 4.077-9.153-.228-.102zm.767-1.919l-.77 1.923.233.093.77-1.923-.233-.093zm.193-.078H9.77v.25h.077v-.25zm.885 2.001l-.769-1.923-.232.093.77 1.923.231-.093zm3.999 9.15l-4-9.153-.23.1 4 9.154.23-.1zm-9.807.176h9.692v-.25H4.923v.25z"/><path id="path8_fill" d="M9 1.77v17.153H7.077V1.77H0L.077 0h16.077v1.77H9z"/><path id="path9_stroke" d="M9 18.923v.125h.125v-.125H9zm-1.923 0h-.125v.125h.125v-.125zm0-17.154h.125v-.125h-.125v.125zM0 1.77l-.125-.005-.006.13H0V1.77zM.077 0v-.125h-.12l-.005.12L.077 0zm16.077 0h.125v-.125h-.125V0zm0 1.77v.124h.125V1.77h-.125zm-7.279 0v17.153h.25V1.77h-.25zM9 18.797H7.077v.25H9v-.25zm-1.798.125V1.77h-.25v17.154h.25zM7.077 1.644H0v.25h7.077v-.25zm-6.952.13L.202.006l-.25-.01-.077 1.769.25.01zM.077.126h16.077v-.25H.077v.25zM16.029 0v1.77h.25V0h-.25zm.125 1.644H9v.25h7.154v-.25z"/><path id="path10_fill" d="M6.385 19.692c-2.616 0-4.693-.615-6.385-1.615l.308-1.692C2.077 17.385 4.077 18 6.462 18c3.538 0 5.384-1.615 5.384-3.923 0-5-11.538-2.385-11.538-8.846C.308 2.46 2.385 0 7.23 0c2.23 0 4.23.385 5.846 1.154l-.308 1.615C11 2.077 9.308 1.692 7.308 1.692c-3.77 0-5.154 1.693-5.154 3.385 0 4.77 11.538 2.077 11.538 8.846-.077 3.385-2.538 5.77-7.307 5.77z"/><path id="path11_stroke" d="M0 18.077l-.123-.022-.016.085.075.044.064-.107zm.308-1.692l.061-.11-.153-.086-.031.173.123.023zM13.077 1.154l.123.023.018-.095-.087-.041-.054.113zm-.308 1.615l-.045.117.14.054.028-.147-.123-.024zm.923 11.154l.125.003v-.003h-.125zm-7.307 5.644c-2.598.002-4.643-.605-6.321-1.598l-.128.215c1.706 1.008 3.815 1.632 6.449 1.633v-.25zM.123 18.1l.308-1.692-.246-.045-.308 1.693.246.044zm.123-1.606a12.378 12.378 0 0 0 6.216 1.632v-.25a12.027 12.027 0 0 1-6.093-1.6l-.123.218zm6.216 1.632c1.786 0 3.162-.408 4.095-1.122.936-.717 1.414-1.735 1.414-2.926h-.25c0 1.117-.445 2.06-1.316 2.728-.875.67-2.191 1.07-3.943 1.07v.25zm5.51-4.048c0-1.314-.766-2.123-1.871-2.694-1.096-.565-2.551-.913-3.991-1.302-1.445-.39-2.867-.82-3.929-1.548C1.13 7.81.433 6.799.433 5.23h-.25c0 1.662.746 2.746 1.857 3.508 1.102.755 2.564 1.195 4.004 1.584 1.444.39 2.874.73 3.942 1.282 1.058.547 1.735 1.286 1.735 2.472h.25zM.431 5.23c0-1.352.507-2.624 1.601-3.56C3.13.736 4.828.126 7.231.126v-.25c-2.444 0-4.206.62-5.36 1.607C.715 2.47.183 3.813.183 5.23h.25zM7.232.125c2.219 0 4.192.378 5.792 1.142l.108-.226C11.5.266 9.473-.124 7.23-.125v.25zm5.723 1.005l-.308 1.616.246.047.308-1.616-.246-.047zm-.14 1.523c-1.777-.696-3.492-1.085-5.506-1.086v.25c1.986 0 3.655.38 5.416 1.069l.09-.233zM7.309 1.567c-1.902 0-3.22.427-4.067 1.084-.85.66-1.212 1.543-1.212 2.426h.25c0-.81.33-1.619 1.115-2.228.788-.612 2.046-1.032 3.914-1.032v-.25zm-5.28 3.51c.003.618.197 1.137.524 1.55.328.409.8.738 1.35 1.005 1.095.53 2.549.855 3.989 1.239 1.443.385 2.865.827 3.926 1.586 1.052.753 1.75 1.818 1.75 3.466h.25c0-1.736-.744-2.874-1.855-3.669-1.102-.789-2.565-1.24-4.007-1.625-1.444-.385-2.875-.704-3.944-1.222-.532-.258-.96-.554-1.264-.936-.304-.38-.47-.82-.468-1.394h-.25zm11.54 8.843c-.038 1.661-.66 3.068-1.85 4.061-1.192.995-2.968 1.586-5.333 1.586v.25c2.404 0 4.243-.6 5.493-1.644 1.252-1.045 1.9-2.523 1.94-4.247l-.25-.006z"/></defs></svg>