<svg xmlns="http://www.w3.org/2000/svg" xmlns:xlink="http://www.w3.org/1999/xlink" viewBox="0 0 106 13"><use transform="translate(.34 1.213)" xlink:href="#path0_fill"/><use transform="translate(28.61 1.213)" xlink:href="#path1_fill"/><use transform="translate(14.75 1.213)" xlink:href="#path2_fill"/><use transform="translate(41.45 1.213)" xlink:href="#path3_fill"/><g fill="#57AD56"><g transform="translate(59.82 1.213)"><use xlink:href="#path4_fill"/><use xlink:href="#path5_stroke"/></g><g transform="translate(71.68 1.213)"><use xlink:href="#path6_fill"/><use xlink:href="#path7_stroke"/></g><g transform="translate(85.24 1.213)"><use xlink:href="#path8_fill"/><use xlink:href="#path9_stroke"/></g><g transform="translate(98.21 1)"><use xlink:href="#path10_fill"/><use xlink:href="#path11_stroke"/></g></g><defs><path id="path0_fill" d="M7.993.255v5.867c0 1.956-.85 2.763-2.891 2.763S2.21 8.078 2.21 6.122V0H.255A.274.274 0 0 0 0 .255v5.952c0 3.274 2.083 4.422 5.102 4.422 3.018 0 5.101-1.148 5.101-4.422V0H8.248c-.128 0-.255.085-.255.255z"/><path id="path1_fill" d="M8.163 1.7c.17 0 .255-.042.297-.17L9.013.129C9.056.043 9.013 0 8.928 0H1.02C.298 0 0 .213 0 .723V9.82c0 .425.213.638.765.638H8.12c.17 0 .255-.043.298-.17l.553-1.404c.042-.085 0-.127-.086-.127H2.168v-1.87c0-.638.34-.936 1.318-.936H6.42c.17 0 .255-.043.297-.17l.553-1.36c.042-.086 0-.128-.085-.128H2.21V1.658h5.952v.043z"/><path id="path2_fill" fill-rule="evenodd" d="M8.12 4.932c.85-.468 1.19-1.276 1.19-2.296C9.31.34 7.44 0 5.485 0H1.02C.298 0 0 .213 0 .723V9.82c0 .425.213.638.765.638H6.25c2.083 0 3.528-.808 3.528-2.891.043-1.276-.467-2.339-1.658-2.636zM2.21 1.658h3.444c1.148 0 1.488.425 1.488 1.318s-.34 1.318-1.488 1.318H2.211V1.658zm0 7.1h3.87c1.232 0 1.572-.425 1.572-1.403s-.34-1.446-1.573-1.446H3.53c-.978 0-1.318.298-1.318.936v1.913z"/><path id="path3_fill" fill-rule="evenodd" d="M7.525 6.25l2.338 4.039c.043.042.043.17-.042.17H7.823c-.17 0-.213-.043-.298-.17L5.399 6.462H3.486c-.978 0-1.318.298-1.318.935v3.062H.255A.274.274 0 0 1 0 10.203V.723C0 .213.298 0 1.02 0h4.464c2.594 0 4.167.68 4.167 3.231 0 1.956-.978 2.721-2.126 3.019zm-5.4-1.403h3.657c1.36 0 1.658-.51 1.658-1.616 0-1.063-.298-1.573-1.658-1.573H2.126v3.189z"/><path id="path4_fill" d="M7.78 9.523l-.042.936H0V0h7.44l.043.978h-6.42v3.614H6.59v.85H1.063v4.081H7.78z"/><path id="path5_stroke" d="M7.738 10.459v.125h.119l.005-.12-.124-.005zm-7.738 0h-.125v.125H0v-.125zM0 0v-.125h-.125V0H0zm7.44 0l.125-.005-.005-.12h-.12V0zm.043.978v.125h.13l-.006-.13-.124.005zm-6.42 0V.853H.938v.125h.125zm0 3.614H.938v.125h.125v-.125zm5.527 0h.125v-.125H6.59v.125zm0 .85v.125h.125v-.125H6.59zm-5.527 0v-.125H.938v.125h.125zm0 4.081H.938v.125h.125v-.125zm6.592-.005l-.042.935.25.011.042-.935-.25-.011zm.083.816H0v.25h7.738v-.25zm-7.613.125V0h-.25v10.459h.25zM0 .125h7.44v-.25H0v.25zm7.315-.12l.043.978.25-.01-.043-.978-.25.01zm.168.848h-6.42v.25h6.42v-.25zM.938.978v3.614h.25V.978h-.25zm.125 3.739H6.59v-.25H1.063v.25zm5.402-.125v.85h.25v-.85h-.25zm.125.725H1.063v.25H6.59v-.25zm-5.652.125v4.081h.25V5.442h-.25zm.125 4.206H7.78v-.25H1.063v.25z"/><path id="path6_fill" fill-rule="evenodd" d="M2.338 7.738h6.165l1.19 2.72h1.19L6.08 0H4.847L0 10.459h1.148l1.19-2.721zm.383-.893l2.253-5.06L5.4.724h.043l.425 1.063 2.21 5.059H2.722z"/><path id="path7_stroke" d="M8.503 7.738l.114-.05-.032-.075h-.082v.125zm-6.165 0v-.125h-.081l-.033.075.114.05zm7.355 2.72l-.114.05.032.076h.082v-.125zm1.19 0v.126h.196l-.082-.178-.113.053zM6.08 0l.113-.052-.033-.073h-.08V0zM4.847 0v-.125h-.08l-.034.072.114.053zM0 10.459l-.113-.053-.083.178H0v-.125zm1.148 0v.125h.082l.032-.075-.114-.05zm3.826-8.673l.115.05.001-.004-.116-.046zM2.721 6.845l-.114-.051-.079.176h.193v-.125zM5.399.723V.598h-.084l-.032.078.116.047zm.043 0l.116-.047-.031-.078h-.085v.125zm.425 1.063l-.116.046.002.004.114-.05zm2.21 5.059v.125h.192l-.077-.175-.114.05zm.426.768H2.338v.25h6.165v-.25zm1.305 2.795l-1.19-2.72-.23.1 1.19 2.72.23-.1zm1.076-.074h-1.19v.25h1.19v-.25zM5.966.052l4.804 10.459.227-.105L6.193-.052l-.227.104zm-1.12.073H6.08v-.25H4.847v.25zM.114 10.511L4.96.053l-.227-.106-4.846 10.459.226.105zm1.035-.177H0v.25h1.148v-.25zm1.076-2.646l-1.19 2.72.228.1 1.19-2.72-.228-.1zM4.86 1.735L2.607 6.794l.228.102 2.253-5.06-.228-.101zM5.283.676L4.858 1.74l.232.093.425-1.063-.232-.093zm.159-.078h-.043v.25h.043v-.25zm.541 1.141L5.558.676 5.326.77l.425 1.063.232-.093zm2.21 5.056l-2.211-5.06-.23.1 2.211 5.06.23-.1zM2.72 6.97h5.357v-.25H2.72v.25z"/><path id="path8_fill" d="M4.974.978v9.48H3.911V.979H0L.043 0h8.885v.978H4.974z"/><path id="path9_stroke" d="M4.974 10.459v.125H5.1v-.125h-.125zm-1.063 0h-.125v.125h.125v-.125zm0-9.481h.125V.853h-.125v.125zM0 .978L-.125.972l-.006.13H0V.979zM.043 0v-.125h-.12l-.005.12L.043 0zm8.885 0h.125v-.125h-.125V0zm0 .978v.125h.125V.978h-.125zm-4.079 0v9.48h.25V.979h-.25zm.125 9.356H3.911v.25h1.063v-.25zm-.938.125V.978h-.25v9.48h.25zM3.911.853H0v.25h3.911v-.25zM.125.983L.167.005l-.25-.01-.042.977.25.011zM.043.125h8.885v-.25H.043v.25zM8.803 0v.978h.25V0h-.25zm.125.853H4.974v.25h3.954v-.25z"/><path id="path10_fill" d="M3.529 10.884c-1.446 0-2.594-.34-3.529-.893l.17-.935a6.744 6.744 0 0 0 3.401.892c1.956 0 2.976-.892 2.976-2.168C6.547 5.017.17 6.462.17 2.891.17 1.361 1.318 0 3.996 0 5.23 0 6.335.213 7.227.638l-.17.893C6.08 1.148 5.144.935 4.04.935c-2.083 0-2.849.936-2.849 1.87 0 2.637 6.378 1.149 6.378 4.89-.043 1.87-1.403 3.189-4.04 3.189z"/><path id="path11_stroke" d="M0 9.99l-.123-.021-.016.085.075.044L0 9.992zm.17-.934l.062-.11-.153-.086-.032.173.123.023zM7.227.638L7.35.66l.018-.095-.087-.041-.054.113zm-.17.893l-.045.116.14.055.028-.148-.123-.023zm.51 6.164l.126.003v-.003h-.125zM3.53 10.76C2.1 10.76.985 10.429.064 9.883l-.128.216c.95.56 2.13.908 3.593.91v-.25zm-3.406-.746l.17-.935-.246-.045-.17.936.246.044zm-.014-.849c.99.56 2.126.908 3.462.91v-.25a6.569 6.569 0 0 1-3.34-.877l-.122.217zm3.462.91c.995 0 1.77-.228 2.298-.632.532-.408.803-.987.803-1.662h-.25c0 .601-.238 1.106-.705 1.463-.471.36-1.185.58-2.146.58v.25zM6.672 7.78c0-.755-.443-1.218-1.064-1.538-.612-.316-1.421-.51-2.217-.724-.799-.216-1.576-.452-2.154-.848C.668 4.28.295 3.737.295 2.89h-.25c0 .94.424 1.555 1.05 1.985.619.424 1.436.668 2.231.883.799.216 1.583.402 2.167.705.575.296.93.69.93 1.316h.25zM.295 2.891c0-.733.274-1.42.865-1.924C1.753.46 2.677.125 3.996.125v-.25C2.637-.125 1.648.22.998.777.345 1.334.045 2.093.045 2.89h.25zM3.996.125c1.221 0 2.3.206 3.178.626L7.28.525c-.907-.431-2.04-.65-3.285-.65v.25zm3.109.49l-.17.892.245.047.17-.893-.245-.047zm-.002.8C6.116 1.027 5.158.81 4.039.81v.25c1.091 0 2.004.207 2.973.587l.09-.233zM4.039.81c-1.059 0-1.801.238-2.282.611-.484.376-.692.88-.692 1.385h.25c0-.431.175-.862.595-1.187.423-.328 1.104-.559 2.129-.559V.81zM1.065 2.806c.002.352.116.656.302.891.186.233.458.422.765.571.612.295 1.42.477 2.215.689.798.213 1.574.455 2.151.868.569.407.945.979.945 1.87h.25c0-.98-.422-1.624-1.05-2.073-.618-.443-1.436-.694-2.232-.907-.8-.213-1.585-.388-2.17-.672-.29-.14-.517-.296-.679-.502a1.09 1.09 0 0 1-.247-.735h-.25zm6.378 4.886c-.021.904-.359 1.665-1.002 2.203-.647.54-1.614.864-2.912.864v.25c1.337 0 2.368-.335 3.072-.922.706-.59 1.07-1.422 1.092-2.39l-.25-.005z"/></defs></svg>